<svg version="1.1" xmlns="http://www.w3.org/2000/svg" xmlns:xlink="http://www.w3.org/1999/xlink" width="27.38454" height="27.35056" viewBox="0,0,27.38454,27.35056"><g transform="translate(-475.91004,-331.77014)"><g data-paper-data="{&quot;isPaintingLayer&quot;:true}" fill-rule="nonzero" stroke="#1a1a1a" stroke-linecap="butt" stroke-linejoin="miter" stroke-miterlimit="10" stroke-dasharray="" stroke-dashoffset="0" style="mix-blend-mode: normal"><path d="M492.01445,358.09165l-4.64744,0.02432l-0.33277,-3.22668l-2.16472,-0.93717l-2.60197,2.20503l-3.19056,-3.24259l2.11733,-2.55842l-1.14582,-2.25521l-3.12201,-0.31296l-0.01374,-4.51189l3.31264,-0.38741l0.80315,-2.29649l-2.03941,-2.38246l3.2463,-3.37155l2.56242,2.26608l2.19636,-1.06332l0.33203,-3.20436l4.61924,-0.05525l0.24167,3.30689l2.22865,0.93507l2.48994,-2.10253l3.32424,3.10608l-2.11327,2.70477l0.91981,2.2909l3.25136,0.0994l-0.0335,4.87036l-3.28313,0.01887l-1.00785,2.33207l2.19051,2.43679l-3.44894,3.36988l-2.40697,-2.29411l-2.09229,0.94231z" fill="#e6e6e6" stroke-width="2"/><path d="M485.62487,345.44865c0,-2.19558 1.77987,-3.97545 3.97545,-3.97545c2.19558,0 3.97545,1.77987 3.97545,3.97545c0,2.19558 -1.77987,3.97545 -3.97545,3.97545c-2.19558,0 -3.97545,-1.77987 -3.97545,-3.97545z" fill="#1a1a1a" stroke-width="2.5"/></g></g></svg>